<svg width="211" height="189" viewBox="0 0 211 189" fill="none" xmlns="http://www.w3.org/2000/svg">
  <g opacity="0.5">
    <path
      d="M0 58.6896V147.147C0 158.504 -6.98699e-07 164.182 3.31903 168.457C6.63794 172.733 12.4407 174.528 24.046 178.12L37.6997 182.344C53.7251 187.304 61.7379 189.784 69.805 188.78C69.9816 188.759 70.1576 188.736 70.3333 188.71V36.3549C69.0101 36.5384 67.676 36.6518 66.3372 36.6943C60.0165 36.8946 53.7612 34.9589 41.2506 31.0874C24.8639 26.0165 16.6705 23.4809 10.4362 26.0558C8.22279 26.9699 6.23669 28.2989 4.60261 29.9592C1.3974e-06 34.6357 0 42.6537 0 58.6896Z"
      fill="#2563EB" />
    <path
      d="M211 130.311V41.8531C211 30.4964 211 24.8179 207.681 20.5428C204.362 16.2678 198.559 14.4721 186.954 10.8807L173.3 6.65557C157.275 1.69638 149.263 -0.783219 141.195 0.21972C141.018 0.241594 140.843 0.265209 140.667 0.290348V152.646C141.99 152.462 143.324 152.348 144.663 152.306C150.983 152.106 157.238 154.042 169.75 157.913C186.136 162.984 194.33 165.52 200.564 162.945C202.777 162.031 204.764 160.702 206.398 159.041C211 154.365 211 146.347 211 130.311Z"
      fill="#2563EB" />
  </g>
  <path
    d="M73.227 35.8342C72.2701 36.0441 71.3046 36.2166 70.3333 36.3513V188.706C78.183 187.582 85.2077 183.234 98.9543 174.725L115.159 164.696C126.132 157.905 131.618 154.51 137.774 153.159C138.73 152.949 139.695 152.776 140.667 152.642V0.286865C132.817 1.41169 125.792 5.75906 112.045 14.2677L95.8409 24.2969C84.8677 31.088 79.3818 34.4834 73.227 35.8342Z"
    fill="#2563EB" />
  <path d="M169.75 157.91C170.774 158.226 171.766 158.533 172.727 158.83L169.75 157.91Z"
    fill="#2563EB" />
</svg>